<?xml version="1.0" encoding="UTF-8" standalone="no"?>
<!DOCTYPE svg PUBLIC "-//W3C//DTD SVG 1.1//EN" "http://www.w3.org/Graphics/SVG/1.1/DTD/svg11.dtd">
<svg width="100%" height="100%" viewBox="0 0 1920 1920" version="1.1" xmlns="http://www.w3.org/2000/svg" xmlns:xlink="http://www.w3.org/1999/xlink" xml:space="preserve" xmlns:serif="http://www.serif.com/" style="fill-rule:evenodd;clip-rule:evenodd;stroke-linecap:round;stroke-linejoin:round;stroke-miterlimit:1.5;">
    <g transform="matrix(-1,-1.22465e-16,1.22465e-16,-1,1948.01,1907.7)">
        <path d="M1908.73,96.847C1908.73,47.921 1869,8.199 1820.08,8.199L127.936,8.199C79.01,8.199 39.288,47.921 39.288,96.847L39.288,1810.85C39.288,1859.78 79.01,1899.5 127.936,1899.5L1820.08,1899.5C1869,1899.5 1908.73,1859.78 1908.73,1810.85L1908.73,96.847Z" style="fill:white;stroke:rgb(7,197,185);stroke-width:58.65px;"/>
    </g>
    <g transform="matrix(-1.92621,-2.35893e-16,2.35893e-16,-1.92621,2819.52,2758.97)">
        <g>
            <g transform="matrix(-8.65891,0,0,8.65891,7498.47,-6784.72)">
                <path d="M794.195,884.996L794.195,905.013C794.195,929.541 770.67,932.54 768.111,932.54L733.181,932.54L733.181,939.151C734.356,939.17 756.68,939.521 768.111,939.151C801.287,938.075 801.287,905.013 801.287,905.013L801.287,884.996L794.195,884.996Z" style="fill:rgb(7,197,185);stroke:rgb(7,197,185);stroke-width:1.84px;"/>
            </g>
            <g transform="matrix(-8.65891,0,0,8.65891,7498.47,-6784.72)">
                <path d="M777.487,884.996L777.487,903.459C777.487,911.056 769.648,915.72 766.789,915.72L733.181,915.72L733.181,922.331L768.111,922.331C782.776,919.927 784.459,907.49 784.459,905.013L784.459,884.996L777.487,884.996Z" style="fill:rgb(7,197,185);stroke:rgb(7,197,185);stroke-width:1.84px;"/>
            </g>
            <g transform="matrix(-8.65891,0,0,8.65891,7498.47,-6784.72)">
                <path d="M777.487,870.793L784.459,870.793L784.459,851.411L794.195,851.411L794.195,870.793L801.287,870.793L801.287,844.912L777.487,844.912L777.487,870.793Z" style="fill:rgb(7,197,185);stroke:rgb(7,197,185);stroke-width:1.84px;"/>
            </g>
            <g transform="matrix(-8.65891,0,0,13.6851,8088.2,-11037.2)">
                <path d="M801.287,890.137L801.287,870.697L794.195,870.697L794.195,900.472L801.287,905.013L801.287,904.963L801.239,904.962L795.83,900.779L801.287,900.779L801.287,894.32L795.83,894.32L795.83,890.137L801.287,890.137Z" style="fill:rgb(7,197,185);stroke:rgb(7,197,185);stroke-width:1.39px;"/>
            </g>
            <g transform="matrix(-8.65891,0,0,13.6851,8088.2,-11037.2)">
                <path d="M777.487,870.697L777.487,900.472L784.459,905.013L784.459,870.697L777.487,870.697Z" style="fill:rgb(7,197,185);stroke:rgb(7,197,185);stroke-width:1.39px;"/>
            </g>
            <g transform="matrix(-8.65891,0,0,13.6851,8088.2,-11037.2)">
                <path d="M777.487,861.71L784.459,861.71L784.459,849.619L794.195,849.619L794.195,861.71L801.287,861.71L801.287,844.912L777.487,844.912L777.487,861.71Z" style="fill:rgb(7,197,185);stroke:rgb(7,197,185);stroke-width:1.39px;"/>
            </g>
            <g transform="matrix(-8.65891,0,0,13.6851,8088.2,-11037.2)">
                <path d="M801.287,900.779L795.83,900.779L801.239,904.962L801.287,904.963L801.287,900.779Z" style="fill:rgb(7,197,185);"/>
            </g>
            <g transform="matrix(-8.65891,0,0,13.6851,8088.2,-11037.2)">
                <rect x="795.83" y="890.137" width="5.458" height="4.183" style="fill:rgb(7,197,185);"/>
            </g>
        </g>
    </g>
</svg>
